<?xml version="1.0" standalone="no"?>
<!DOCTYPE svg PUBLIC "-//W3C//DTD SVG 20010904//EN"
 "http://www.w3.org/TR/2001/REC-SVG-20010904/DTD/svg10.dtd">
<svg version="1.0" xmlns="http://www.w3.org/2000/svg"
 width="980.000000pt" height="466.000000pt" viewBox="0 0 980.000000 466.000000"
 preserveAspectRatio="xMidYMid meet">
<defs>
    <linearGradient id="grad1" x1="0%" y1="0%" x2="100%" y2="100%">
        <stop offset="25.9336%" stop-color="#FFDB6E"/>
        <stop offset="100%" stop-color="#FFBC5E"/>
    </linearGradient>
    <linearGradient id="grad2" x1="0%" y1="0%" x2="100%" y2="100%">
        <stop offset="25.9336%" stop-color="#FFDB6E"/>
        <stop offset="100%" stop-color="#FFBC5E"/>
    </linearGradient>
</defs>

<g transform="translate(0.000000,466.000000) scale(0.100000,-0.100000)"
fill="url(#grad1)" stroke="none">
<path d="M4700 4650 c-483 -50 -899 -219 -1265 -513 -112 -90 -310 -296 -398
-415 -236 -317 -381 -667 -443 -1072 -25 -157 -25 -491 -1 -645 89 -576 362
-1072 790 -1441 630 -543 1497 -704 2289 -428 151 53 390 172 520 260 347 234
598 521 789 901 327 650 328 1402 4 2058 -340 689 -1009 1170 -1780 1280 -128
19 -395 26 -505 15z m639 -374 c28 -30 52 -56 52 -58 1 -2 4 -75 8 -163 l6
-160 110 -42 c61 -23 122 -42 136 -43 20 0 52 23 124 91 54 50 109 95 122 100
50 19 108 11 154 -22 66 -47 494 -479 514 -519 21 -40 23 -106 5 -141 -7 -13
-56 -69 -110 -124 l-99 -100 53 -130 52 -130 150 -6 c164 -6 177 -10 242 -72
l42 -41 0 -256 c-1 -338 -12 -522 -35 -556 -32 -50 -95 -68 -252 -72 l-142 -4
-42 -106 c-64 -163 -65 -154 28 -253 118 -126 123 -134 123 -194 0 -67 -16
-91 -174 -258 -176 -188 -360 -354 -407 -369 -64 -19 -107 1 -212 98 -51 47
-101 90 -112 95 -15 8 -50 0 -145 -33 l-125 -44 -5 -154 c-6 -173 -15 -201
-84 -254 l-35 -26 -382 0 -382 0 -33 25 c-68 52 -78 83 -84 254 l-5 154 -124
48 c-69 27 -129 49 -135 49 -6 0 -54 -43 -106 -95 -140 -141 -192 -154 -296
-75 -69 52 -451 434 -488 488 -22 32 -28 53 -28 90 0 64 8 77 114 190 105 112
103 98 39 263 l-42 107 -142 4 c-157 4 -220 22 -252 72 -23 34 -34 215 -35
551 l0 261 43 41 c64 62 77 66 240 72 l148 6 50 119 c27 66 49 127 49 136 0 8
-41 56 -91 105 -50 50 -97 103 -106 119 -23 44 -20 107 7 152 31 51 418 443
493 500 49 36 67 44 102 44 65 0 83 -10 190 -109 73 -68 104 -91 124 -90 14 0
76 19 136 42 l110 42 6 170 c3 97 10 179 17 191 26 48 83 56 452 63 184 4 353
8 376 9 38 2 45 -2 93 -52z"/>
<path fill="url(#grad2)" d="M4728 3868 c-6 -182 -21 -202 -192 -262 -58 -20 -147 -54 -198 -77
-156 -69 -205 -89 -235 -95 -35 -7 -92 30 -193 123 l-71 66 -115 -114 c-63
-62 -114 -116 -114 -119 0 -3 34 -43 76 -90 42 -47 82 -97 90 -112 28 -54 18
-104 -50 -248 -36 -74 -78 -175 -96 -225 -37 -108 -66 -161 -101 -187 -28 -21
-125 -37 -226 -38 l-63 0 0 -165 0 -165 95 0 c51 0 117 -5 145 -11 45 -10 55
-17 80 -55 15 -24 45 -90 65 -146 21 -57 66 -166 100 -243 84 -190 84 -186 41
-251 -20 -29 -65 -84 -100 -122 l-65 -68 117 -117 117 -117 90 81 c145 132
167 135 343 50 68 -33 189 -83 269 -113 l146 -53 21 -45 c15 -34 21 -74 26
-165 l5 -120 165 0 165 0 5 130 c4 114 8 134 28 162 30 42 72 67 162 93 41 12
129 46 195 75 170 76 222 95 252 95 35 0 82 -31 177 -117 l81 -72 117 116 117
116 -79 86 c-132 142 -136 168 -56 341 30 64 78 176 106 250 75 201 100 220
288 220 l102 0 0 165 0 165 -62 1 c-224 1 -270 31 -323 206 -15 47 -53 143
-84 212 -32 69 -66 149 -75 178 -16 49 -16 53 2 90 11 21 54 76 96 123 42 47
76 87 76 90 0 3 -51 57 -114 119 l-114 114 -74 -67 c-156 -143 -180 -148 -340
-68 -57 28 -156 71 -220 96 -156 60 -214 91 -235 123 -14 21 -19 54 -22 155
l-3 128 -168 0 -168 0 -4 -122z m362 -794 c146 -35 301 -135 406 -262 66 -81
139 -226 153 -306 14 -76 14 -287 1 -357 -32 -171 -193 -385 -368 -488 -121
-73 -166 -84 -346 -89 -174 -5 -243 4 -332 44 -438 194 -608 729 -356 1123 94
148 266 279 427 327 126 36 283 39 415 8z"/>
<path d="M4758 2746 c-58 -16 -112 -52 -176 -120 -101 -107 -133 -205 -113
-349 16 -116 45 -180 110 -246 136 -139 333 -177 506 -97 74 34 177 133 213
205 25 53 27 63 26 191 0 156 -9 182 -91 284 -82 102 -194 147 -359 145 -38 0
-90 -6 -116 -13z"/>
<path d="M6741 4233 c224 -229 417 -497 539 -748 257 -530 339 -1172 219
-1715 -111 -500 -319 -888 -694 -1290 -59 -63 -111 -123 -116 -132 -16 -30 21
-22 166 32 810 304 1697 841 2442 1480 65 56 205 184 311 283 l193 182 -162
158 c-798 777 -1943 1505 -2875 1827 l-148 51 125 -128z"/>
<path d="M2940 4276 c-453 -175 -1072 -495 -1490 -771 -493 -326 -884 -636
-1277 -1012 l-173 -165 133 -127 c397 -383 820 -721 1287 -1031 252 -168 427
-269 760 -443 381 -198 909 -421 936 -395 3 4 -51 68 -121 144 -229 246 -356
426 -480 679 -126 257 -202 501 -246 786 -27 172 -32 529 -10 694 41 320 130
615 267 889 132 262 219 383 493 681 61 66 111 123 111 128 0 14 -26 6 -190
-57z"/>
</g>
</svg>